<?xml version="1.0" standalone="no"?>
<!DOCTYPE svg PUBLIC "-//W3C//DTD SVG 20010904//EN"
 "http://www.w3.org/TR/2001/REC-SVG-20010904/DTD/svg10.dtd">
<svg version="1.0" xmlns="http://www.w3.org/2000/svg"
 width="219.000000pt" height="230.000000pt" viewBox="0 0 219.000000 230.000000"
 preserveAspectRatio="xMidYMid meet">
<metadata>
Created by potrace 1.16, written by Peter Selinger 2001-2019
</metadata>
<g transform="translate(0.000000,230.000000) scale(0.100000,-0.100000)"
fill="#000000" stroke="none">
<path d="M903 2285 c-120 -26 -248 -114 -312 -213 -67 -104 -73 -140 -81 -437
-8 -281 -15 -326 -60 -419 -20 -42 -80 -106 -111 -119 -23 -10 66 -84 129
-107 71 -27 134 -39 253 -48 l94 -7 3 -48 c3 -42 -3 -57 -49 -134 -35 -58 -49
-90 -43 -99 22 -32 368 -293 379 -286 6 4 93 72 192 151 l181 144 -69 92 c-62
82 -69 97 -69 137 l0 46 98 7 c150 11 260 33 335 67 86 40 98 53 66 75 -42 29
-85 80 -106 125 -38 82 -45 139 -47 415 -3 283 -6 304 -56 402 -54 106 -148
168 -273 178 -53 4 -86 14 -122 34 -100 56 -210 71 -332 44z"/>
<path d="M610 771 c-213 -82 -278 -112 -353 -161 -148 -97 -182 -166 -226
-458 -12 -74 -23 -138 -26 -143 -4 -5 424 -9 1090 -9 634 0 1094 4 1091 9 -3
5 -17 79 -31 166 -27 168 -52 254 -89 314 -64 100 -195 173 -549 305 l-69 26
31 -38 c55 -65 132 -175 157 -224 l24 -48 -85 0 -86 0 -198 -150 c-109 -83
-201 -150 -206 -150 -4 0 -92 67 -195 150 l-188 150 -86 0 -86 0 21 43 c29 56
71 118 136 200 30 37 53 67 51 66 -2 0 -59 -22 -128 -48z"/>
</g>
</svg>
