<?xml version="1.0" standalone="no"?>
<!DOCTYPE svg PUBLIC "-//W3C//DTD SVG 20010904//EN"
 "http://www.w3.org/TR/2001/REC-SVG-20010904/DTD/svg10.dtd">
<svg version="1.0" xmlns="http://www.w3.org/2000/svg"
 width="207.000000pt" height="244.000000pt" viewBox="0 0 207.000000 244.000000"
 preserveAspectRatio="xMidYMid meet">
<metadata>
Created by potrace 1.16, written by Peter Selinger 2001-2019
</metadata>
<g transform="translate(0.000000,244.000000) scale(0.100000,-0.100000)"
fill="#000000" stroke="none">
<path d="M953 2429 c-61 -12 -126 -43 -198 -94 -160 -114 -246 -281 -232 -449
4 -39 9 -80 12 -91 4 -15 -2 -24 -25 -37 -26 -15 -30 -23 -30 -60 0 -82 48
-226 87 -264 11 -10 30 -53 43 -94 31 -106 64 -166 124 -225 141 -141 365
-161 529 -48 75 52 157 190 182 306 3 18 12 27 25 27 60 0 134 251 95 325 -14
25 -14 41 -4 123 26 206 -15 347 -115 399 -16 8 -50 36 -76 62 -106 106 -263
151 -417 120z"/>
<path d="M615 1018 c-84 -53 -264 -134 -375 -169 -91 -29 -111 -39 -150 -78
-70 -71 -85 -124 -85 -306 0 -82 4 -167 8 -188 8 -37 12 -41 110 -87 136 -65
290 -114 472 -152 148 -31 154 -32 440 -32 286 0 292 1 440 32 257 53 532 158
571 216 14 23 17 53 18 194 1 194 -11 245 -79 319 -36 39 -53 48 -159 83 -114
38 -297 121 -382 174 l-40 25 -23 -72 c-94 -305 -195 -617 -200 -617 -3 0 -24
52 -47 116 l-41 117 39 76 c62 121 51 189 -34 212 -52 14 -128 6 -162 -16 -53
-35 -49 -110 11 -214 l31 -54 -41 -119 c-23 -65 -45 -118 -48 -118 -3 0 -45
125 -93 278 -49 152 -98 307 -110 344 l-21 67 -50 -31z"/>
</g>
</svg>
